Coordinates
version=1
nRows=37
nColumns=38
inDegrees=no

Units are S.I. units (second, meters, Newtons, ...)
If the header above contains a line with 'inDegrees', this indicates whether rotational values are in degrees (yes) or radians (no).

endheader
time	pelvis_tilt	pelvis_list	pelvis_rotation	pelvis_tx	pelvis_ty	pelvis_tz	hip_flexion_r	hip_adduction_r	hip_rotation_r	knee_angle_r	ankle_angle_r	subtalar_angle_r	mtp_angle_r	hip_flexion_l	hip_adduction_l	hip_rotation_l	knee_angle_l	ankle_angle_l	subtalar_angle_l	mtp_angle_l	lumbar_extension	lumbar_bending	lumbar_rotation	arm_flex_r	arm_add_r	arm_rot_r	elbow_flex_r	pro_sup_r	wrist_flex_r	wrist_dev_r	arm_flex_l	arm_add_l	arm_rot_l	elbow_flex_l	pro_sup_l	wrist_flex_l	wrist_dev_l
0	0.330739	1.22034	-1.78088	0.470866	1.55024	1.10757	-0.276105	-0.0801951	-0.151275	0.600042	-0.0184622	0	0	0.0170824	-0.0453433	-0.256625	0.436357	-0.197619	0	0	-0.532501	-0.0348985	-0.106572	0.549797	-0.503468	0.522365	1.20588	0.686316	0	0	0.277531	-0.480728	0.0560321	1.2951	0.859467	0	0
0.01	0.330515	1.22393	-1.77851	0.473458	1.54155	1.10599	-0.279606	-0.0798754	-0.148983	0.604829	-0.0129666	0	0	0.0189258	-0.0387739	-0.235636	0.382519	-0.187586	0	0	-0.531636	-0.0344549	-0.103648	0.547929	-0.504354	0.511879	1.20786	0.68857	0	0	0.288543	-0.478114	0.0614412	1.29106	0.857684	0	0
0.02	0.332261	1.22684	-1.77819	0.476379	1.53164	1.10451	-0.286296	-0.081533	-0.1523	0.606396	-0.00905737	0	0	0.0165986	-0.0324916	-0.220933	0.3282	-0.179919	0	0	-0.530274	-0.034082	-0.105081	0.548109	-0.50302	0.506854	1.20855	0.693774	0	0	0.291346	-0.479999	0.0633685	1.29182	0.861956	0	0
0.03	0.335012	1.22963	-1.77917	0.479498	1.52136	1.10295	-0.293026	-0.0841102	-0.157217	0.608444	-0.00592245	0	0	0.0131901	-0.0265143	-0.209581	0.276733	-0.172348	0	0	-0.528502	-0.0336538	-0.107131	0.548381	-0.501577	0.502744	1.20935	0.701301	0	0	0.292163	-0.477275	0.059852	1.29334	0.859686	0	0
0.04	0.337783	1.23164	-1.77964	0.482834	1.51098	1.10136	-0.300707	-0.087035	-0.163629	0.610828	-0.00252317	0	0	0.00750258	-0.0203473	-0.195817	0.225568	-0.17048	0	0	-0.526783	-0.0328182	-0.110891	0.552798	-0.502503	0.507513	1.20904	0.694047	0	0	0.291588	-0.476737	0.0568051	1.29495	0.860524	0	0
0.05	0.338639	1.23407	-1.77858	0.486235	1.50041	1.09966	-0.308058	-0.0892538	-0.168628	0.613672	0.000335137	0	0	0.00192081	-0.0159803	-0.181902	0.179877	-0.168182	0	0	-0.524578	-0.0313679	-0.113225	0.554028	-0.502441	0.506383	1.20968	0.695321	0	0	0.291727	-0.475891	0.0552966	1.29619	0.859821	0	0
0.06	0.336941	1.2364	-1.77524	0.489627	1.48969	1.09785	-0.315607	-0.0903493	-0.172568	0.616798	0.00292322	0	0	-0.00408165	-0.0135485	-0.167493	0.140349	-0.168166	0	0	-0.522193	-0.0292354	-0.115032	0.554997	-0.502376	0.505057	1.21032	0.696593	0	0	0.291877	-0.475228	0.0542757	1.29741	0.858101	0	0
0.07	0.331877	1.23829	-1.76932	0.492962	1.47881	1.09599	-0.323707	-0.0907471	-0.175641	0.619905	0.00470066	0	0	-0.00903229	-0.01345	-0.157116	0.113641	-0.165452	0	0	-0.520093	-0.0264514	-0.1156	0.556152	-0.503192	0.504799	1.21127	0.698587	0	0	0.292257	-0.474796	0.0542	1.2987	0.855515	0	0
0.08	0.326607	1.23967	-1.76502	0.49616	1.46775	1.09409	-0.331596	-0.0917439	-0.176302	0.624078	0.00532091	0	0	-0.0107692	-0.0145599	-0.155744	0.105921	-0.160265	0	0	-0.518038	-0.0245626	-0.114676	0.556864	-0.50387	0.504096	1.2122	0.69954	0	0	0.292272	-0.474557	0.0542792	1.30039	0.853807	0	0
0.09	0.322307	1.24023	-1.76282	0.499273	1.45646	1.09229	-0.340126	-0.0939348	-0.175697	0.628504	0.00497371	0	0	-0.0115904	-0.0156031	-0.156544	0.111266	-0.156275	0	0	-0.516313	-0.0238327	-0.11303	0.557	-0.504113	0.502888	1.21281	0.700453	0	0	0.291652	-0.474417	0.053947	1.30258	0.852193	0	0
0.1	0.319584	1.23936	-1.76361	0.502311	1.44495	1.09066	-0.34983	-0.0980405	-0.173797	0.633573	0.00395156	0	0	-0.0127468	-0.0159403	-0.159112	0.128303	-0.153752	0	0	-0.515548	-0.0245591	-0.110606	0.556689	-0.504156	0.50119	1.21337	0.702795	0	0	0.290457	-0.474819	0.0537592	1.30539	0.851971	0	0
0.11	0.31692	1.23772	-1.76653	0.505274	1.43324	1.08909	-0.359168	-0.103276	-0.169271	0.640012	0.00138878	0	0	-0.0119571	-0.017052	-0.168665	0.162337	-0.140816	0	0	-0.515168	-0.0260856	-0.106531	0.558398	-0.507233	0.504999	1.21445	0.696514	0	0	0.288746	-0.474656	0.0532119	1.30858	0.852703	0	0
0.12	0.3171	1.23492	-1.77325	0.508197	1.42131	1.08769	-0.368522	-0.110283	-0.164321	0.647881	-0.00172595	0	0	-0.0151236	-0.0161075	-0.17411	0.192963	-0.138599	0	0	-0.515318	-0.0293091	-0.10247	0.558426	-0.507637	0.504941	1.21444	0.698823	0	0	0.286181	-0.47464	0.0519742	1.31239	0.853259	0	0
0.13	0.317278	1.2314	-1.78275	0.510963	1.40914	1.08635	-0.376744	-0.118802	-0.155474	0.658424	-0.0117798	0	0	-0.0190357	-0.0151646	-0.18674	0.225773	-0.124583	0	0	-0.516288	-0.0335696	-0.0951602	0.557195	-0.510263	0.504355	1.21696	0.697688	0	0	0.283953	-0.473644	0.0510973	1.3167	0.853166	0	0
0.14	0.320722	1.22822	-1.7935	0.51397	1.39672	1.0852	-0.384329	-0.127907	-0.148878	0.669137	-0.0195454	0	0	-0.026847	-0.0102411	-0.186352	0.238182	-0.128557	0	0	-0.515886	-0.0384196	-0.090383	0.554956	-0.510806	0.50288	1.21738	0.698983	0	0	0.280618	-0.473554	0.0501215	1.32069	0.853069	0	0
0.15	0.32554	1.22483	-1.8046	0.517091	1.38423	1.08427	-0.390831	-0.137257	-0.142433	0.682088	-0.0237339	0	0	-0.0338218	-0.00435201	-0.185068	0.244899	-0.13252	0	0	-0.515028	-0.0435995	-0.0874839	0.554423	-0.511225	0.505402	1.21603	0.695101	0	0	0.276523	-0.473822	0.0482563	1.32439	0.853114	0	0
0.16	0.333313	1.22119	-1.8177	0.520305	1.37175	1.08366	-0.395791	-0.147437	-0.136008	0.696859	-0.0372422	0	0	-0.0408269	0.00242118	-0.183311	0.24597	-0.152724	0	0	-0.514837	-0.0498109	-0.0844372	0.550601	-0.511201	0.502693	1.21639	0.695018	0	0	0.274511	-0.474087	0.0489714	1.32719	0.853268	0	0
0.17	0.343124	1.21789	-1.83044	0.523898	1.35927	1.0833	-0.399164	-0.157729	-0.131478	0.712891	-0.0587632	0	0	-0.0480078	0.00963762	-0.179424	0.244271	-0.183919	0	0	-0.51454	-0.0558101	-0.0822253	0.541937	-0.509195	0.491146	1.21792	0.708043	0	0	0.274082	-0.473395	0.0510971	1.3287	0.858279	0	0
0.18	0.351729	1.21531	-1.83936	0.528077	1.34678	1.08304	-0.400826	-0.166946	-0.128806	0.730422	-0.0880695	0	0	-0.0541119	0.0156745	-0.176392	0.245839	-0.212372	0	0	-0.512977	-0.0594992	-0.0825019	0.537777	-0.511514	0.490655	1.21872	0.701122	0	0	0.273297	-0.472377	0.0532956	1.32914	0.861538	0	0
0.19	0.358148	1.21434	-1.84369	0.532718	1.33431	1.08282	-0.399709	-0.17421	-0.126445	0.750449	-0.114073	0	0	-0.0570798	0.0194086	-0.174859	0.253825	-0.231172	0	0	-0.509891	-0.0606608	-0.084195	0.531649	-0.512491	0.486432	1.21926	0.702281	0	0	0.272848	-0.47124	0.0565899	1.32882	0.862153	0	0
0.2	0.361242	1.21455	-1.84331	0.537478	1.32192	1.08273	-0.395695	-0.179087	-0.123375	0.773573	-0.135371	0	0	-0.0570141	0.0202664	-0.175071	0.268685	-0.244848	0	0	-0.505971	-0.0597018	-0.0871763	0.527399	-0.514106	0.48588	1.21863	0.70032	0	0	0.271608	-0.470469	0.0589563	1.32858	0.862337	0	0
0.21	0.362384	1.21475	-1.84083	0.54201	1.30963	1.08305	-0.389523	-0.182576	-0.119011	0.798029	-0.171624	0	0	-0.0561138	0.0192304	-0.177252	0.287957	-0.260658	0	0	-0.503108	-0.058538	-0.0894296	0.521274	-0.514671	0.481491	1.2187	0.701104	0	0	0.271682	-0.470195	0.0627012	1.32797	0.862592	0	0
0.22	0.364923	1.21404	-1.84027	0.546223	1.29744	1.08393	-0.381522	-0.186664	-0.113445	0.824166	-0.214335	0	0	-0.0566604	0.018729	-0.179538	0.307724	-0.274783	0	0	-0.501693	-0.0589088	-0.0915653	0.515041	-0.513829	0.476177	1.21809	0.702493	0	0	0.272495	-0.471033	0.0672357	1.32715	0.86376	0	0
0.23	0.329047	1.24371	-1.71123	0.559793	1.2815	1.08542	-0.390091	-0.132857	-0.205925	0.787898	-0.312719	0	0	-0.0116619	-0.00462657	-0.068808	0.357878	-0.267615	0	0	-0.464858	-0.0129039	-0.15668	0.468964	-0.496155	0.435277	1.20954	0.727127	0	0	0.267768	-0.471908	0.0828942	1.31637	0.870723	0	0
0.24	0.368111	1.21	-1.8388	0.554578	1.27361	1.08707	-0.360886	-0.195613	-0.0984859	0.879635	-0.327159	0	0	-0.064067	0.0194491	-0.182898	0.343419	-0.29229	0	0	-0.503812	-0.0592253	-0.0950107	0.502449	-0.509888	0.460411	1.21693	0.719007	0	0	0.275858	-0.472409	0.0767434	1.32507	0.864318	0	0
0.25	0.334126	1.2378	-1.70933	0.569534	1.2582	1.08918	-0.369837	-0.146885	-0.196038	0.846014	-0.418183	0	0	-0.0239303	8.28185e-05	-0.0693973	0.389282	-0.269684	0	0	-0.46812	-0.00982822	-0.165823	0.464863	-0.494911	0.431798	1.20544	0.734546	0	0	0.267615	-0.471058	0.0868733	1.31381	0.873834	0	0
0.26	0.332878	1.23475	-1.7054	0.574302	1.24684	1.09128	-0.357553	-0.152271	-0.187292	0.875303	-0.475749	0	0	-0.0328378	0.00183367	-0.0741713	0.401428	-0.26809	0	0	-0.470505	-0.00661794	-0.169418	0.463561	-0.494653	0.429927	1.20408	0.741238	0	0	0.268508	-0.470536	0.0893648	1.3116	0.875109	0	0
0.27	0.325634	1.23165	-1.69587	0.578978	1.23566	1.09338	-0.344416	-0.154336	-0.175782	0.902735	-0.546619	0	0	-0.0439254	0.00155195	-0.0808547	0.411177	-0.263965	0	0	-0.473502	-0.000823217	-0.171715	0.464105	-0.498037	0.432464	1.20494	0.73703	0	0	0.270607	-0.47008	0.0934139	1.30893	0.873004	0	0
0.28	0.315858	1.22957	-1.68427	0.583507	1.2246	1.09534	-0.328895	-0.153713	-0.161158	0.931232	-0.59465	0	0	-0.0555532	7.06539e-05	-0.0879608	0.41842	-0.259492	0	0	-0.475388	0.00607022	-0.173669	0.465387	-0.501396	0.435829	1.20568	0.732938	0	0	0.272372	-0.469175	0.0965851	1.30614	0.870246	0	0
0.29	0.304681	1.22827	-1.67184	0.587835	1.21362	1.09722	-0.311475	-0.150873	-0.14437	0.958734	-0.639456	0	0	-0.0671223	-0.00258427	-0.0949569	0.424545	-0.254166	0	0	-0.476454	0.0134283	-0.175243	0.467118	-0.50427	0.439343	1.20611	0.729879	0	0	0.273432	-0.468169	0.0984589	1.30379	0.867349	0	0
0.3	0.293142	1.22774	-1.65965	0.591893	1.2027	1.09905	-0.292613	-0.146085	-0.125002	0.985079	-0.678962	0	0	-0.0780932	-0.00625128	-0.101402	0.43005	-0.248841	0	0	-0.47674	0.0205258	-0.176551	0.468861	-0.505897	0.442154	1.20587	0.728994	0	0	0.274064	-0.467741	0.0998098	1.30184	0.865025	0	0
0.31	0.281411	1.22775	-1.64768	0.595602	1.19188	1.10086	-0.272577	-0.138939	-0.105006	1.01007	-0.698132	0	0	-0.0887479	-0.0107466	-0.106086	0.433601	-0.246091	0	0	-0.477008	0.0270735	-0.177404	0.469968	-0.506075	0.442744	1.20549	0.731185	0	0	0.27498	-0.468177	0.101393	1.30059	0.863763	0	0
0.32	0.269778	1.22816	-1.63631	0.599002	1.18113	1.10264	-0.251807	-0.130095	-0.0852691	1.03403	-0.697555	0	0	-0.0989315	-0.0158379	-0.110269	0.43595	-0.24342	0	0	-0.476407	0.0329917	-0.179545	0.477487	-0.509051	0.456426	1.20249	0.714157	0	0	0.274131	-0.469631	0.101027	1.3001	0.862528	0	0
0.33	0.258204	1.22875	-1.625	0.602193	1.17048	1.10441	-0.23108	-0.120266	-0.067815	1.05579	-0.672291	0	0	-0.109049	-0.0209331	-0.112974	0.437138	-0.242776	0	0	-0.476693	0.0385021	-0.180345	0.480455	-0.50929	0.459999	1.20154	0.710139	0	0	0.274514	-0.471258	0.101514	1.30056	0.861172	0	0
0.34	0.245461	1.22968	-1.61336	0.605161	1.15988	1.10614	-0.20943	-0.109058	-0.0503031	1.07667	-0.629446	0	0	-0.118957	-0.0266164	-0.117987	0.439133	-0.243289	0	0	-0.477168	0.0440672	-0.179517	0.483312	-0.511213	0.464338	1.20197	0.701919	0	0	0.27564	-0.472428	0.102294	1.30108	0.86025	0	0
0.35	0.241711	1.21643	-1.67477	0.601077	1.15208	1.10769	-0.171108	-0.109973	0.0454891	1.12969	-0.588038	0	0	-0.156834	-0.0203617	-0.199321	0.423641	-0.249941	0	0	-0.50198	0.0250538	-0.130096	0.512091	-0.519772	0.485516	1.20502	0.695762	0	0	0.281453	-0.47279	0.0954582	1.30754	0.855987	0	0
0.36	0.22424	1.23	-1.59225	0.611457	1.13935	1.10993	-0.168009	-0.0897254	-0.0243487	1.10613	-0.57931	0	0	-0.143512	-0.034401	-0.124785	0.438192	-0.241167	0	0	-0.480945	0.054866	-0.179866	0.488472	-0.51177	0.466685	1.20101	0.700814	0	0	0.279771	-0.473774	0.103732	1.30169	0.859828	0	0
